<svg t="1723109917620" class="icon" viewBox="0 0 1024 1024" version="1.1" xmlns="http://www.w3.org/2000/svg" p-id="10400" width="40" height="40"><path d="M554.666667 829.184a319.701333 319.701333 0 0 0 210.666666-121.664l-131.562666-75.946667A170.496 170.496 0 0 1 554.666667 677.290667v151.893333z m253.397333-195.52A319.061333 319.061333 0 0 0 832 512c0-43.072-8.512-84.16-23.936-121.664l-131.584 75.968c4.032 14.549333 6.186667 29.866667 6.186667 45.696s-2.154667 31.146667-6.186667 45.696l131.584 75.968z m-42.730667-317.184A319.701333 319.701333 0 0 0 554.666667 194.816v151.893333a170.496 170.496 0 0 1 79.104 45.717334l131.562666-75.946667zM469.333333 194.816a319.701333 319.701333 0 0 0-210.666666 121.664l131.562666 75.946667A170.496 170.496 0 0 1 469.333333 346.709333v-151.893333z m-253.397333 195.52A319.061333 319.061333 0 0 0 192 512c0 43.072 8.512 84.16 23.936 121.664l131.584-75.968A170.837333 170.837333 0 0 1 341.333333 512c0-15.829333 2.154667-31.146667 6.186667-45.696l-131.584-75.968z m42.730667 317.184A319.701333 319.701333 0 0 0 469.333333 829.184v-151.893333a170.496 170.496 0 0 1-79.104-45.717334l-131.562666 75.946667zM469.333333 915.114667A404.992 404.992 0 0 1 184.234667 750.506667l-38.890667 22.442666a42.666667 42.666667 0 1 1-42.666667-73.898666l38.826667-22.4A403.925333 403.925333 0 0 1 106.666667 512c0-58.624 12.437333-114.346667 34.837333-164.650667l-38.826667-22.4a42.666667 42.666667 0 1 1 42.666667-73.898666l38.890667 22.442666A404.992 404.992 0 0 1 469.333333 108.885333V64a42.666667 42.666667 0 0 1 85.333334 0v44.885333a404.992 404.992 0 0 1 285.098666 164.608l38.890667-22.442666a42.666667 42.666667 0 1 1 42.666667 73.898666l-38.826667 22.4A403.925333 403.925333 0 0 1 917.333333 512c0 58.624-12.437333 114.346667-34.837333 164.650667l38.826667 22.4a42.666667 42.666667 0 1 1-42.666667 73.898666l-38.890667-22.442666A404.992 404.992 0 0 1 554.666667 915.114667V960a42.666667 42.666667 0 0 1-85.333334 0v-44.885333z m116.138667-359.68a43.456 43.456 0 0 1 0.896-1.578667c6.976-12.373333 10.965333-26.645333 10.965333-41.856a84.949333 84.949333 0 0 0-11.861333-43.434667A85.290667 85.290667 0 0 0 512 426.666667a85.290667 85.290667 0 0 0-73.472 128.768A85.290667 85.290667 0 0 0 512 597.333333a85.290667 85.290667 0 0 0 73.472-41.898666z" fill="#D8D8D8" p-id="10401"></path></svg>
