<svg t="1721295497221" class="icon" viewBox="0 0 1024 1024" version="1.1" xmlns="http://www.w3.org/2000/svg" p-id="8697" width="40" height="40"><path d="M339.328 903.936a31.872 31.872 0 1 1 29.098667-56.746667 326.058667 326.058667 0 0 0 312.064-7.936 31.957333 31.957333 0 1 1 32.085333 55.253334 388.693333 388.693333 0 0 1-373.248 9.429333z m-233.813333-122.069333a110.72 110.72 0 1 1 95.914666 55.253333 110.677333 110.677333 0 0 1-95.957333-55.296z m72.533333-95.744a46.464 46.464 0 1 0 23.168-6.229334 45.653333 45.653333 0 0 0-23.210667 6.186667z m589.354667 134.656a110.933333 110.933333 0 0 1-40.405334-151.168 110.634667 110.634667 0 1 1 40.405334 151.168z m15.104-119.168a46.634667 46.634667 0 0 0 17.066666 63.658666 46.592 46.592 0 1 0-17.066666-63.658666zM129.024 553.6a388.864 388.864 0 0 1 178.346667-327.850667 31.872 31.872 0 0 1 44.16 9.344 32.213333 32.213333 0 0 1-9.344 44.416 324.992 324.992 0 0 0-149.333334 274.090667 32 32 0 1 1-64 0z m749.738667 17.066667a31.872 31.872 0 0 1-31.829334-30.336 325.674667 325.674667 0 0 0-162.816-266.410667 32 32 0 0 1 31.829334-55.466667 389.504 389.504 0 0 1 194.816 318.506667 31.957333 31.957333 0 0 1-30.336 33.749333zM400.085333 187.349333a110.549333 110.549333 0 1 1 110.592 110.933334 110.677333 110.677333 0 0 1-110.677333-110.762667z m64 0a46.634667 46.634667 0 1 0 46.677334-46.677333 46.933333 46.933333 0 0 0-46.848 46.848z" p-id="8698"></path></svg>
