<svg t="1720586436946" class="icon" viewBox="0 0 1024 1024" version="1.1" xmlns="http://www.w3.org/2000/svg" p-id="4434" width="40" height="40"><path d="M512 97.52381c228.912762 0 414.47619 185.563429 414.47619 414.47619s-185.563429 414.47619-414.47619 414.47619S97.52381 740.912762 97.52381 512 283.087238 97.52381 512 97.52381z m0 73.142857C323.486476 170.666667 170.666667 323.486476 170.666667 512s152.81981 341.333333 341.333333 341.333333 341.333333-152.81981 341.333333-341.333333S700.513524 170.666667 512 170.666667z m45.32419 487.619047v73.142857h-68.510476l-0.024381-73.142857h68.534857z m-4.047238-362.008381c44.251429 8.923429 96.889905 51.126857 96.889905 112.518096 0 61.415619-50.151619 84.650667-68.120381 96.134095-17.993143 11.50781-24.722286 24.771048-24.722286 38.863238V609.52381h-68.534857v-90.672762c0-21.504 6.89981-36.571429 26.087619-49.883429l4.315429-2.852571 38.497524-25.6c24.551619-16.530286 24.210286-49.712762 9.020952-64.365715a68.998095 68.998095 0 0 0-60.391619-15.481904c-42.715429 8.387048-47.640381 38.521905-47.932952 67.779047v16.554667H390.095238c0-56.953905 6.534095-82.773333 36.912762-115.395048 34.03581-36.449524 81.993143-42.300952 126.268952-33.328762z" p-id="4435"></path></svg>
