<svg t="1720518492736" class="icon" viewBox="0 0 1024 1024" version="1.1" xmlns="http://www.w3.org/2000/svg" p-id="5161" width="40" height="40"><path d="M184.704 841.984l-13.269333-14.506667a465.493333 465.493333 0 0 1-101.802667-176.896l-5.76-18.602666L151.253333 512 63.872 392.021333l5.76-18.602666a465.493333 465.493333 0 0 1 101.802667-176.938667l13.226666-14.464 146.901334 16.085333 59.648-135.978666 19.114666-4.309334A462.634667 462.634667 0 0 1 512 46.506667c34.56 0 68.565333 3.797333 101.717333 11.264l19.114667 4.266666 59.648 136.021334 146.858667-16.085334 13.269333 14.506667a465.493333 465.493333 0 0 1 101.802667 176.896l5.76 18.602667L872.789333 512l87.381334 119.978667-5.76 18.602666a465.493333 465.493333 0 0 1-101.802667 176.938667l-13.226667 14.464-146.901333-16.085333-59.648 135.978666-19.114667 4.309334a462.848 462.848 0 0 1-203.392 0l-19.114666-4.266667-59.648-136.021333-146.858667 16.085333z m148.693333-94.293333a63.488 63.488 0 0 1 65.024 37.589333l47.786667 108.970667a386.133333 386.133333 0 0 0 131.584 0l47.786667-108.970667a63.488 63.488 0 0 1 65.066666-37.589333l117.504 12.8c28.373333-34.133333 50.773333-72.96 66.048-114.773334l-70.186666-96.341333a63.488 63.488 0 0 1 0-74.752l70.186666-96.341333a387.882667 387.882667 0 0 0-66.048-114.773334l-117.504 12.8a63.488 63.488 0 0 1-65.024-37.589333l-47.786666-108.970667a386.261333 386.261333 0 0 0-131.584 0l-47.786667 108.970667a63.488 63.488 0 0 1-65.066667 37.589333l-117.504-12.8c-28.416 34.133333-50.773333 72.96-66.048 114.773334l70.144 96.341333c16.213333 22.272 16.213333 52.48 0 74.752l-70.144 96.341333c15.274667 41.813333 37.632 80.64 66.048 114.773334l117.504-12.8zM512 705.92c-106.752 0-193.237333-86.869333-193.237333-193.92 0-107.093333 86.485333-193.92 193.237333-193.92 106.709333 0 193.194667 86.869333 193.194667 193.92 0 107.093333-86.485333 193.92-193.194667 193.92z m0-77.568c63.786667 0 115.626667-52.053333 115.626667-116.352A116.010667 116.010667 0 0 0 512 395.648 116.010667 116.010667 0 0 0 396.373333 512 116.010667 116.010667 0 0 0 512 628.352z" p-id="5162"></path></svg>
