<svg id="图层_1" data-name="图层 1" xmlns="http://www.w3.org/2000/svg" viewBox="0 0 226.7717 226.7717"><defs><style>.cls-1{fill:#2b937c;}</style></defs><title>JumpServer-svg</title><path class="cls-1" d="M106.0046,19.847c-7.45,4.3208-15.1294,8.2413-22.6631,12.4187-8.588,4.7636-17.1218,9.6325-26.7072,15.0337C76.9458,60.3158,96.473,72.826,117.11,86.0483c-3.9532,2.3451-7.19,4.012-10.1453,6.08-3.0117,2.11-5.5318,2.052-8.7237.112C81.7489,82.2246,64.8917,72.7883,48.6525,62.3857c-6.85-4.3889-12.2647-5.27-19.1849-.4425-6.7146,4.6836-7.2319,10.1994-.26,14.574,3.3749,2.1174,6.7611,4.2124,10.1339,6.3344,17.958,11.3073,36.2648,22.106,53.7426,34.1156,10.8972,7.4889,20.85,7.18,31.5131.789q14.7893-8.8592,29.5506-17.7707c3.6253-2.1989,7.1637-4.5411,11.473-7.2812-19.34-12.3884-37.9159-24.2877-57.0895-36.567,3.3142-2.3442,6.0216-3.9931,8.4125-6.0183,3.2107-2.7167,5.9834-2.8529,9.7893-.6351,16.115,9.3933,32.4079,18.4874,48.71,27.5583,10.9576,6.0961,11.0116,5.9976,19.4985-3.2041a6.8618,6.8618,0,0,0-1.817-11.0163c-25.9722-14.349-51.9745-28.6472-77.8812-43.1182C111.8825,17.828,109.2528,17.9614,106.0046,19.847Z"/><path class="cls-1" d="M123.6087,134.9833c-9.0211,4.72-18.4968,5.0893-27.6607-.4308Q63.9145,115.2564,31.83,96.0461c-2.0726-1.2459-4.178-2.4381-7.1754-4.18,0,8.2485.3185,15.4239-.1174,22.5556-.2646,4.3109,1.314,6.6953,4.8741,8.74,23.0069,13.201,45.885,26.6276,68.9186,39.7844a24.5614,24.5614,0,0,0,23.85.8267c14.8059-7.6017,57.6846-34.101,72.0942-42.4589,1.3748-.7988,3.1265-2.4757,3.1712-3.8.288-8.4258.1474-16.8661.1474-25.8678-2.3419,1.3293-4.3746,2.4864-6.41,3.6364C178.2179,102.6135,136.7984,128.0864,123.6087,134.9833Z"/><path class="cls-1" d="M139.0327,164.7215c-6.3537,3.5291-12.7587,7.0306-19.3984,9.9576-7.3325,3.2318-14.7987,3.2417-21.9763-1.0085-6.0119-3.56-12.1736-6.8718-18.1573-10.4762-10.7587-6.4848-21.41-13.157-32.1592-19.6562-7.2465-4.3818-14.588-8.6059-22.6117-13.3272,0,9.1423-.1053,17.2718.1078,25.3932a5.3173,5.3173,0,0,0,2.3463,3.6912c23.6117,14.1359,47.1714,28.3679,71.0383,42.0676a24.5542,24.5542,0,0,0,25.0632.2607c14.26-7.944,58.6823-34.3844,72.8134-42.5559,1.2461-.7209,2.8619-2.21,2.8967-3.3865.2532-8.33.1336-16.67.1336-25.47a11.2944,11.2944,0,0,0-2.9178.8008C187.2251,136.119,148.0677,159.7047,139.0327,164.7215Z"/><path class="cls-1" d="M113.8967.4765l-.62-.3772L13.0717,58.2152l-.5786.3485V166.0992l100.7832,61.6674,100.223-61.3173.56-.35V58.5637Zm97.7641,164.2971-98.3845,60.1589L14.8914,164.7736V59.9171L113.2763,2.9056l98.3845,57.0115Z"/></svg>